<svg width="0" height="0" class="hidden">
	<symbol id="search" xmlns="http://www.w3.org/2000/svg" viewBox="0 0 17 17">
		<path d="M7.45614 14.5819C3.35526 14.5819 0 11.2845 0 7.25431C0 3.29741 3.35526 0 7.45614 0C11.557 0 14.9123 3.29741 14.9123 7.32759C14.8377 11.3578 11.557 14.5819 7.45614 14.5819ZM7.45614 1.46552C4.17544 1.46552 1.49123 4.10345 1.49123 7.32759C1.49123 10.5517 4.17544 13.1897 7.45614 13.1897C10.7368 13.1897 13.4211 10.5517 13.4211 7.32759C13.3465 4.10345 10.7368 1.46552 7.45614 1.46552Z" fill="black"/>
		<path d="M3.28077 7.3276H2.53516C2.53516 4.68967 4.772 2.49139 7.45621 2.49139V3.22415C5.14481 3.22415 3.28077 5.05605 3.28077 7.3276Z" fill="black"/>
		<path d="M16.2543 17C16.0306 17 15.8815 16.9267 15.7324 16.7802L11.5569 12.6767C11.2587 12.3836 11.2587 11.944 11.5569 11.6509C11.8552 11.3578 12.3025 11.3578 12.6008 11.6509L16.7762 15.7543C17.0745 16.0474 17.0745 16.4871 16.7762 16.7802C16.7017 16.9267 16.478 17 16.2543 17Z" fill="black"/>
	</symbol>
	<symbol id="close" xmlns="http://www.w3.org/2000/svg" viewBox="0 0 10 10">
		<path d="M0.571429 10C0.4 10 0.285714 9.94286 0.171429 9.82857C-0.0571429 9.6 -0.0571429 9.25714 0.171429 9.02857L9.02857 0.171429C9.25714 -0.0571429 9.6 -0.0571429 9.82857 0.171429C10.0571 0.4 10.0571 0.742857 9.82857 0.971429L0.971429 9.82857C0.857143 9.94286 0.742857 10 0.571429 10Z" fill="#989898"/>
		<path d="M9.42857 10C9.25714 10 9.14286 9.94286 9.02857 9.82857L0.171429 0.971429C-0.0571429 0.742857 -0.0571429 0.4 0.171429 0.171429C0.4 -0.0571429 0.742857 -0.0571429 0.971429 0.171429L9.82857 9.02857C10.0571 9.25714 10.0571 9.6 9.82857 9.82857C9.71429 9.94286 9.54286 10 9.42857 10Z" fill="#989898"/>
	</symbol>
	<symbol id="arrow" xmlns="http://www.w3.org/2000/svg" viewBox="0 0 15 16">
		<path d="M13.8086 8.28325L7.40461 14.6872C7.20448 14.8874 6.93765 14.8874 6.73753 14.6872C6.5374 14.4871 6.5374 14.2203 6.73753 14.0202L12.808 7.94971L6.73753 1.87926C6.5374 1.67914 6.5374 1.4123 6.73753 1.21218C6.93765 1.01206 7.20448 1.01206 7.40461 1.21218L13.8086 7.61617C14.0087 7.81629 14.0087 8.08312 13.8086 8.28325Z" fill="black"/>
	</symbol>
</svg>
